# xmcd
#
# Track frame offsets: 
#        150
#        2377
#        18356
#        32736
#        51987
#        68590
#        83894
#        109985
#        127561
#        142681
#        164804
#        182284
#        205112
#        223275
#        243147
#        264712
#        284857
#        300138
#
# Disc length: 4361 seconds
#
# Revision: 0
# Processed by: cddbd v1.5.2PL0 Copyright (c) Steve Scherf et al.
# Submitted via: ExactAudioCopy v0.99pb5
#
DISCID=ef110712
DTITLE=Authority Zero - Less Rhythm More Booze
DYEAR=2012
DGENRE=Rock
TTITLE0=Prelude (Live)
TTITLE1=Liberateducation [Dub] (Live)
TTITLE2=Carpe Diem [Jazz] (Live)
TTITLE3=Movement (Live)
TTITLE4=Break The Mold [Reggae] (Live)
TTITLE5=No Regrets [Tribal] (Live)
TTITLE6=Crashland [Acoustic] (Live)
TTITLE7=Talk Is Cheap (Live)
TTITLE8=The Remedy [Surf] (Live)
TTITLE9=Big Bad World (Live)
TTITLE10=12:34 [Lounge] (Live)
TTITLE11=Wake Up Call [Slow] (Live)
TTITLE12=Break Free (Live)
TTITLE13=Drunken Sailor (Live)
TTITLE14=Get It Right [Acoustic] (Live)
TTITLE15=Courage [Acoustic] (Live)
TTITLE16=Rattlin' Bog (Live)
TTITLE17=One More Season [Remix] (Live)
EXTD=
EXTT0=
EXTT1=
EXTT2=
EXTT3=
EXTT4=
EXTT5=
EXTT6=
EXTT7=
EXTT8=
EXTT9=
EXTT10=
EXTT11=
EXTT12=
EXTT13=
EXTT14=
EXTT15=
EXTT16=
EXTT17=
PLAYORDER=
